<?xml version="1.0" encoding="iso-8859-1"?>
<!-- Generator: Adobe Illustrator 19.0.0, SVG Export Plug-In . SVG Version: 6.00 Build 0)  -->
<svg version="1.1" id="Capa_1" xmlns="http://www.w3.org/2000/svg" xmlns:xlink="http://www.w3.org/1999/xlink" x="0px" y="0px"
	 viewBox="0 0 496 496" style="enable-background:new 0 0 496 496;" xml:space="preserve">
<path style="fill:#F0BC5E;" d="M392,230.456l-19.76-7.408l8.736-19.208l-24.816-24.816l-19.208,8.736L329.544,168h-35.096
	l-7.408,19.76l-19.208-8.736l-24.816,24.816l8.736,19.208L232,230.456v35.096l19.76,7.408l-8.736,19.208l24.816,24.816l19.208-8.736
	L294.456,328h35.096l7.408-19.76l19.208,8.736l24.816-24.816l-8.736-19.208L392,265.544V230.456z M312,272
	c-13.256,0-24-10.744-24-24s10.744-24,24-24s24,10.744,24,24C336,261.256,325.256,272,312,272z"/>
<path d="M264.624,96c-70.928,0-132.272,45.648-152.648,113.576l-5.752,19.152C100.136,249.04,88.992,267.704,74,282.696
	l-7.656,7.656C64.84,291.84,64,293.872,64,296c0,2.12,0.84,4.16,2.344,5.656C90.624,325.944,104,358.232,104,392.568
	C104,418.72,125.272,440,151.432,440c12.168,0,24.248-3.048,34.944-8.816L200,423.856V488c0,4.416,3.576,8,8,8h136
	c4.424,0,8-3.584,8-8v-58.808c0-27.008,10.512-52.4,29.616-71.504C408.944,330.36,424,294.024,424,255.376
	C424,167.496,352.504,96,264.624,96z M370.304,346.384C348.176,368.496,336,397.904,336,429.192V480h-16V328h-16v152h-88v-64.76
	l59.792-32.192l-7.576-14.088l-89.424,48.144c-8.376,4.512-17.84,6.896-27.36,6.896C134.104,424,120,409.904,120,392.568
	c0-35.936-13.024-69.872-36.832-96.416L85.32,294c16.856-16.864,29.392-37.848,36.24-60.68l5.752-19.152
	C145.632,153.056,200.824,112,264.624,112c13.664,0,26.848,2.04,39.376,5.632V168h16v-44.856c51.64,21.704,88,72.792,88,132.232
	C408,289.752,394.608,322.072,370.304,346.384z"/>
<path d="M40,80h369.888l80-40l-80-40H40C17.944,0,0,17.944,0,40S17.944,80,40,80z M88,48h16V32H88V16h312v16H120v16h280v16H88V48z
	 M416,59.056V20.944L454.112,40L416,59.056z M40,16h32v48H40c-13.232,0-24-10.768-24-24S26.768,16,40,16z"/>
<path d="M312,216c-17.648,0-32,14.352-32,32s14.352,32,32,32s32-14.352,32-32S329.648,216,312,216z M312,264
	c-8.824,0-16-7.176-16-16s7.176-16,16-16s16,7.176,16,16S320.824,264,312,264z"/>
<path d="M472,448c-13.232,0-24,10.768-24,24s10.768,24,24,24s24-10.768,24-24S485.232,448,472,448z M472,480c-4.416,0-8-3.592-8-8
	s3.584-8,8-8s8,3.592,8,8S476.416,480,472,480z"/>
<path d="M24,304c-13.232,0-24,10.768-24,24s10.768,24,24,24s24-10.768,24-24S37.232,304,24,304z M24,336c-4.416,0-8-3.592-8-8
	s3.584-8,8-8s8,3.592,8,8S28.416,336,24,336z"/>
<rect x="16" y="384" width="16" height="16"/>
<rect x="16" y="432" width="16" height="16"/>
<rect x="16" y="480" width="16" height="16"/>
<rect x="464" y="304" width="16" height="16"/>
<rect x="464" y="352" width="16" height="16"/>
<rect x="464" y="400" width="16" height="16"/>
<g>
</g>
<g>
</g>
<g>
</g>
<g>
</g>
<g>
</g>
<g>
</g>
<g>
</g>
<g>
</g>
<g>
</g>
<g>
</g>
<g>
</g>
<g>
</g>
<g>
</g>
<g>
</g>
<g>
</g>
</svg>
