<svg height="480pt" viewBox="0 0 480 480" width="480pt" xmlns="http://www.w3.org/2000/svg"><path d="m240 8c-128.128906 0-232 103.871094-232 232s103.871094 232 232 232 232-103.871094 232-232-103.871094-232-232-232zm136 352h-272v-240h272zm0 0" fill="#78b9eb"/><path d="m216 192h48v96h-48zm0 0" fill="#78b9eb"/><g fill="#006df0"><path d="m240 0c-132.546875 0-240 107.453125-240 240s107.453125 240 240 240 240-107.453125 240-240c-.148438-132.484375-107.515625-239.851562-240-240zm0 464c-123.710938 0-224-100.289062-224-224s100.289062-224 224-224 224 100.289062 224 224c-.140625 123.652344-100.347656 223.859375-224 224zm0 0"/><path d="m376 112h-272c-4.417969 0-8 3.582031-8 8v240c0 4.417969 3.582031 8 8 8h272c4.417969 0 8-3.582031 8-8v-240c0-4.417969-3.582031-8-8-8zm-8 240h-256v-224h256zm0 0"/><path d="m216 296h48c4.417969 0 8-3.582031 8-8v-96c0-4.417969-3.582031-8-8-8h-48c-4.417969 0-8 3.582031-8 8v96c0 4.417969 3.582031 8 8 8zm8-96h32v80h-32zm0 0"/><path d="m144 256c5.691406-.015625 10.941406-3.066406 13.777344-8h12.445312c3.621094 6.273438 11.003906 9.328125 18 7.453125 6.992188-1.871094 11.859375-8.210937 11.859375-15.453125s-4.867187-13.582031-11.859375-15.453125c-6.996094-1.875-14.378906 1.179687-18 7.453125h-12.445312c-3.890625-6.734375-12.054688-9.695312-19.355469-7.027344-7.300781 2.671875-11.625 10.207032-10.25 17.859375 1.375 7.652344 8.054687 13.207031 15.828125 13.167969zm0 0"/><path d="m136 173.777344v18.222656c0 4.417969 3.582031 8 8 8h18.222656c3.621094 6.273438 11.003906 9.328125 18 7.453125 6.992188-1.871094 11.859375-8.210937 11.859375-15.453125s-4.867187-13.582031-11.859375-15.453125c-6.996094-1.875-14.378906 1.179687-18 7.453125h-10.222656v-10.222656c6.273438-3.621094 9.328125-11.003906 7.453125-18-1.871094-6.992188-8.210937-11.859375-15.453125-11.859375s-13.582031 4.867187-15.453125 11.859375c-1.875 6.996094 1.179687 14.378906 7.453125 18zm0 0"/><path d="m296 256c5.691406-.015625 10.941406-3.066406 13.777344-8h12.445312c3.621094 6.273438 11.003906 9.328125 18 7.453125 6.992188-1.871094 11.859375-8.210937 11.859375-15.453125s-4.867187-13.582031-11.859375-15.453125c-6.996094-1.875-14.378906 1.179687-18 7.453125h-12.445312c-3.890625-6.734375-12.054688-9.695312-19.355469-7.027344-7.300781 2.671875-11.625 10.207032-10.25 17.859375 1.375 7.652344 8.054687 13.207031 15.828125 13.167969zm0 0"/><path d="m304 208c5.691406-.015625 10.941406-3.066406 13.777344-8h18.222656c4.417969 0 8-3.582031 8-8v-18.222656c6.273438-3.621094 9.328125-11.003906 7.453125-18-1.871094-6.992188-8.210937-11.859375-15.453125-11.859375s-13.582031 4.867187-15.453125 11.859375c-1.875 6.996094 1.179687 14.378906 7.453125 18v10.222656h-10.222656c-3.890625-6.734375-12.054688-9.695312-19.355469-7.027344-7.300781 2.671875-11.625 10.207032-10.25 17.859375 1.375 7.652344 8.054687 13.207031 15.828125 13.167969zm0 0"/><path d="m144 336c7.230469.019531 13.570312-4.828125 15.445312-11.8125s-1.179687-14.355469-7.445312-17.964844v-10.222656h10.222656c3.621094 6.273438 11.003906 9.328125 18 7.453125 6.992188-1.871094 11.859375-8.210937 11.859375-15.453125s-4.867187-13.582031-11.859375-15.453125c-6.996094-1.875-14.378906 1.179687-18 7.453125h-18.222656c-4.417969 0-8 3.582031-8 8v18.222656c-6.265625 3.609375-9.320312 10.980469-7.445312 17.964844s8.214843 11.832031 15.445312 11.8125zm0 0"/><path d="m344 306.222656v-18.222656c0-4.417969-3.582031-8-8-8h-18.222656c-3.621094-6.273438-11.003906-9.328125-18-7.453125-6.992188 1.871094-11.859375 8.210937-11.859375 15.453125s4.867187 13.582031 11.859375 15.453125c6.996094 1.875 14.378906-1.179687 18-7.453125h10.222656v10.222656c-6.273438 3.621094-9.328125 11.003906-7.453125 18 1.871094 6.992188 8.210937 11.859375 15.453125 11.859375s13.582031-4.867187 15.453125-11.859375c1.875-6.996094-1.179687-14.378906-7.453125-18zm0 0"/><path d="m232 152h16v16h-16zm0 0"/><path d="m232 312h16v16h-16zm0 0"/></g></svg>