<svg height="464.04606pt" viewBox="0 0 464.04606 464.04606" width="464.04606pt" xmlns="http://www.w3.org/2000/svg"><path d="m464.046875 232.046875c0 128.128906-103.871094 232-232 232-8.5.003906-16.996094-.476563-25.441406-1.441406-120.824219-13.304688-210.894531-117.613281-206.449219-239.085938 4.441406-121.472656 101.890625-218.921875 223.363281-223.363281 121.472657-4.445312 225.78125 85.625 239.085938 206.449219.964843 8.445312 1.445312 16.941406 1.441406 25.441406zm0 0" fill="#ff9811"/><path d="m464.046875 232.046875c0 128.128906-103.871094 232-232 232-8.5.003906-16.996094-.476563-25.441406-1.441406l-110.558594-110.558594 272-240 94.558594 94.558594c.964843 8.445312 1.445312 16.941406 1.441406 25.441406zm0 0" fill="#df850f"/><path d="m96.046875 112.046875h272v240h-272zm0 0" fill="#f1f2f2"/><path d="m208.046875 184.046875h48v96h-48zm0 0" fill="#d80027"/><g fill="#898890"><path d="m176.046875 216.046875c-5.691406.015625-10.941406 3.066406-13.777344 8h-12.449219c-3.617187-6.273437-11-9.328125-17.996093-7.457031-6.996094 1.875-11.859375 8.214844-11.859375 15.457031s4.863281 13.578125 11.859375 15.453125c6.996093 1.875 14.378906-1.183594 17.996093-7.453125h12.449219c3.886719 6.730469 12.054688 9.695313 19.355469 7.023437 7.300781-2.671874 11.625-10.203124 10.25-17.855468s-8.054688-13.207032-15.828125-13.167969zm0 0"/><path d="m128.046875 165.820312v18.226563c0 4.417969 3.582031 8 8 8h18.222656c3.621094 6.269531 11.003907 9.328125 17.996094 7.453125 6.996094-1.875 11.859375-8.210938 11.859375-15.453125s-4.863281-13.582031-11.859375-15.457031c-6.992187-1.871094-14.375 1.183594-17.996094 7.457031h-10.222656v-10.226563c6.269531-3.617187 9.328125-11 7.453125-17.996093-1.875-6.996094-8.210938-11.859375-15.453125-11.859375s-13.582031 4.863281-15.457031 11.859375c-1.871094 6.996093 1.183594 14.378906 7.457031 17.996093zm0 0"/><path d="m168.046875 264.046875c-5.691406.015625-10.941406 3.066406-13.777344 8h-18.222656c-4.417969 0-8 3.582031-8 8v18.222656c-6.273437 3.621094-9.328125 11.003907-7.457031 17.996094 1.875 6.996094 8.214844 11.859375 15.457031 11.859375s13.578125-4.863281 15.453125-11.859375c1.875-6.992187-1.183594-14.375-7.453125-17.996094v-10.222656h10.222656c3.886719 6.730469 12.054688 9.695313 19.355469 7.023437 7.300781-2.671874 11.625-10.203124 10.25-17.855468s-8.054688-13.207032-15.828125-13.167969zm0 0"/><path d="m328.046875 216.046875c-5.691406.015625-10.941406 3.066406-13.777344 8h-12.449219c-3.617187-6.273437-11-9.328125-17.996093-7.457031-6.996094 1.875-11.859375 8.214844-11.859375 15.457031s4.863281 13.578125 11.859375 15.453125c6.996093 1.875 14.378906-1.183594 17.996093-7.453125h12.449219c3.886719 6.730469 12.054688 9.695313 19.355469 7.023437 7.300781-2.671874 11.625-10.203124 10.25-17.855468s-8.054688-13.207032-15.828125-13.167969zm0 0"/><path d="m296.046875 200.046875c5.691406-.019531 10.941406-3.066406 13.773437-8h18.226563c4.417969 0 8-3.582031 8-8v-18.226563c6.269531-3.617187 9.328125-11 7.453125-17.996093-1.875-6.996094-8.210938-11.859375-15.453125-11.859375s-13.582031 4.863281-15.457031 11.859375c-1.871094 6.996093 1.183594 14.378906 7.457031 17.996093v10.226563h-10.226563c-3.886718-6.734375-12.050781-9.699219-19.351562-7.027344s-11.625 10.207031-10.25 17.859375 8.050781 13.207032 15.828125 13.167969zm0 0"/><path d="m336.046875 298.269531v-18.222656c0-4.417969-3.582031-8-8-8h-18.226563c-3.617187-6.273437-11-9.328125-17.996093-7.457031-6.996094 1.875-11.859375 8.214844-11.859375 15.457031s4.863281 13.578125 11.859375 15.453125c6.996093 1.875 14.378906-1.183594 17.996093-7.453125h10.226563v10.222656c-6.273437 3.621094-9.328125 11.003907-7.457031 17.996094 1.875 6.996094 8.214844 11.859375 15.457031 11.859375s13.578125-4.863281 15.453125-11.859375c1.875-6.992187-1.183594-14.375-7.453125-17.996094zm0 0"/></g><path d="m224.40625 144.046875h15.273438v15.269531h-15.273438zm0 0" fill="#a71159"/><path d="m224.40625 296.773438h15.273438v15.273437h-15.273438zm0 0" fill="#a71159"/></svg>